<svg width="229" height="96" viewBox="0 0 229 96" fill="none" xmlns="http://www.w3.org/2000/svg">
<g filter="url(#filter0_d_1_20)">
<rect x="4" y="0.454529" width="221" height="87.0606" rx="10" fill="white"/>
</g>
<path d="M40.1808 13.9336C40.9191 13.9336 41.5285 14.0234 42.009 14.2031C42.4933 14.3828 42.8527 14.6562 43.0871 15.0234C43.3254 15.3906 43.4445 15.8574 43.4445 16.4238C43.4445 16.8457 43.3664 17.205 43.2101 17.5019C43.0539 17.7988 42.8488 18.0449 42.5949 18.2402C42.341 18.4355 42.0695 18.5918 41.7805 18.709L44.2121 22.5H42.6242L40.5558 19.0664H39.1789V22.5H37.7726V13.9336H40.1808ZM40.0871 15.1054H39.1789V17.9062H40.1516C40.8039 17.9062 41.2766 17.7851 41.5695 17.5429C41.8664 17.3008 42.0148 16.9433 42.0148 16.4707C42.0148 15.9746 41.8566 15.623 41.5402 15.416C41.2277 15.209 40.7433 15.1054 40.0871 15.1054ZM47.8391 15.8906C48.6594 15.8906 49.2785 16.0722 49.6965 16.4355C50.1183 16.7988 50.3293 17.3652 50.3293 18.1347V22.5H49.3508L49.0871 21.58H49.0402C48.8566 21.8144 48.6672 22.0078 48.4719 22.1601C48.2766 22.3125 48.05 22.4258 47.7922 22.5C47.5383 22.5781 47.2277 22.6172 46.8605 22.6172C46.4738 22.6172 46.1281 22.5468 45.8234 22.4062C45.5187 22.2617 45.2785 22.0429 45.1027 21.75C44.9269 21.457 44.8391 21.0859 44.8391 20.6367C44.8391 19.9687 45.0871 19.4668 45.5832 19.1308C46.0832 18.7949 46.8371 18.6093 47.8449 18.5742L48.9699 18.5332V18.1933C48.9699 17.7441 48.8644 17.4238 48.6535 17.2324C48.4465 17.041 48.1535 16.9453 47.7746 16.9453C47.4504 16.9453 47.1359 16.9922 46.8312 17.0859C46.5266 17.1797 46.2297 17.2949 45.9406 17.4316L45.4953 16.459C45.8117 16.291 46.1711 16.1543 46.5734 16.0488C46.9797 15.9433 47.4016 15.8906 47.8391 15.8906ZM48.9641 19.4004L48.1262 19.4297C47.4387 19.4531 46.9562 19.5703 46.6789 19.7812C46.4016 19.9922 46.2629 20.2812 46.2629 20.6484C46.2629 20.9687 46.3586 21.2031 46.55 21.3515C46.7414 21.4961 46.9933 21.5683 47.3058 21.5683C47.7824 21.5683 48.1769 21.4336 48.4894 21.164C48.8058 20.8906 48.9641 20.4902 48.9641 19.9629V19.4004ZM51.6066 25.3828C51.4035 25.3828 51.2101 25.3672 51.0266 25.3359C50.843 25.3086 50.6887 25.2754 50.5637 25.2363V24.1347C50.6965 24.1738 50.8254 24.2031 50.9504 24.2226C51.0754 24.2422 51.218 24.2519 51.3781 24.2519C51.632 24.2519 51.841 24.1816 52.0051 24.041C52.173 23.9004 52.257 23.6328 52.257 23.2383V16.0136H53.634V23.3613C53.634 23.7558 53.5637 24.1054 53.423 24.4101C53.2863 24.7148 53.0676 24.9531 52.7668 25.125C52.4699 25.2968 52.0832 25.3828 51.6066 25.3828ZM52.175 14.2851C52.175 14.0078 52.2492 13.8125 52.3976 13.6992C52.55 13.5859 52.7355 13.5293 52.9543 13.5293C53.1652 13.5293 53.3469 13.5859 53.4992 13.6992C53.6555 13.8125 53.7336 14.0078 53.7336 14.2851C53.7336 14.5586 53.6555 14.7539 53.4992 14.8711C53.3469 14.9843 53.1652 15.041 52.9543 15.041C52.7355 15.041 52.55 14.9843 52.3976 14.8711C52.2492 14.7539 52.175 14.5586 52.175 14.2851ZM58.1516 15.8906C58.9719 15.8906 59.591 16.0722 60.009 16.4355C60.4308 16.7988 60.6418 17.3652 60.6418 18.1347V22.5H59.6633L59.3996 21.58H59.3527C59.1691 21.8144 58.9797 22.0078 58.7844 22.1601C58.5891 22.3125 58.3625 22.4258 58.1047 22.5C57.8508 22.5781 57.5402 22.6172 57.173 22.6172C56.7863 22.6172 56.4406 22.5468 56.1359 22.4062C55.8312 22.2617 55.591 22.0429 55.4152 21.75C55.2394 21.457 55.1516 21.0859 55.1516 20.6367C55.1516 19.9687 55.3996 19.4668 55.8957 19.1308C56.3957 18.7949 57.1496 18.6093 58.1574 18.5742L59.2824 18.5332V18.1933C59.2824 17.7441 59.1769 17.4238 58.966 17.2324C58.759 17.041 58.466 16.9453 58.0871 16.9453C57.7629 16.9453 57.4484 16.9922 57.1437 17.0859C56.8391 17.1797 56.5422 17.2949 56.2531 17.4316L55.8078 16.459C56.1242 16.291 56.4836 16.1543 56.8859 16.0488C57.2922 15.9433 57.7141 15.8906 58.1516 15.8906ZM59.2766 19.4004L58.4387 19.4297C57.7512 19.4531 57.2687 19.5703 56.9914 19.7812C56.7141 19.9922 56.5754 20.2812 56.5754 20.6484C56.5754 20.9687 56.6711 21.2031 56.8625 21.3515C57.0539 21.4961 57.3058 21.5683 57.6183 21.5683C58.0949 21.5683 58.4894 21.4336 58.8019 21.164C59.1183 20.8906 59.2766 20.4902 59.2766 19.9629V19.4004ZM65.8566 15.8906C65.966 15.8906 66.0851 15.8965 66.2141 15.9082C66.343 15.9199 66.4543 15.9355 66.548 15.955L66.4191 17.2441C66.3371 17.2207 66.2355 17.2031 66.1144 17.1914C65.9973 17.1797 65.8918 17.1738 65.798 17.1738C65.5519 17.1738 65.3176 17.2148 65.0949 17.2968C64.8723 17.375 64.675 17.4961 64.5031 17.6601C64.3312 17.8203 64.1965 18.0215 64.0988 18.2636C64.0012 18.5058 63.9523 18.7871 63.9523 19.1074V22.5H62.5695V16.0136H63.6476L63.8351 17.1562H63.8996C64.0285 16.9258 64.1887 16.7148 64.3801 16.5234C64.5715 16.332 64.7902 16.1797 65.0363 16.0664C65.2863 15.9492 65.5598 15.8906 65.8566 15.8906ZM70.2922 15.8906C71.1125 15.8906 71.7316 16.0722 72.1496 16.4355C72.5715 16.7988 72.7824 17.3652 72.7824 18.1347V22.5H71.8039L71.5402 21.58H71.4933C71.3098 21.8144 71.1203 22.0078 70.925 22.1601C70.7297 22.3125 70.5031 22.4258 70.2453 22.5C69.9914 22.5781 69.6808 22.6172 69.3137 22.6172C68.9269 22.6172 68.5812 22.5468 68.2766 22.4062C67.9719 22.2617 67.7316 22.0429 67.5558 21.75C67.3801 21.457 67.2922 21.0859 67.2922 20.6367C67.2922 19.9687 67.5402 19.4668 68.0363 19.1308C68.5363 18.7949 69.2902 18.6093 70.298 18.5742L71.423 18.5332V18.1933C71.423 17.7441 71.3176 17.4238 71.1066 17.2324C70.8996 17.041 70.6066 16.9453 70.2277 16.9453C69.9035 16.9453 69.5891 16.9922 69.2844 17.0859C68.9797 17.1797 68.6828 17.2949 68.3937 17.4316L67.9484 16.459C68.2648 16.291 68.6242 16.1543 69.0266 16.0488C69.4328 15.9433 69.8547 15.8906 70.2922 15.8906ZM71.4172 19.4004L70.5793 19.4297C69.8918 19.4531 69.4094 19.5703 69.132 19.7812C68.8547 19.9922 68.716 20.2812 68.716 20.6484C68.716 20.9687 68.8117 21.2031 69.0031 21.3515C69.1945 21.4961 69.4465 21.5683 69.759 21.5683C70.2355 21.5683 70.6301 21.4336 70.9426 21.164C71.259 20.8906 71.4172 20.4902 71.4172 19.9629V19.4004ZM74.0598 25.3828C73.8566 25.3828 73.6633 25.3672 73.4797 25.3359C73.2961 25.3086 73.1418 25.2754 73.0168 25.2363V24.1347C73.1496 24.1738 73.2785 24.2031 73.4035 24.2226C73.5285 24.2422 73.6711 24.2519 73.8312 24.2519C74.0851 24.2519 74.2941 24.1816 74.4582 24.041C74.6262 23.9004 74.7101 23.6328 74.7101 23.2383V16.0136H76.0871V23.3613C76.0871 23.7558 76.0168 24.1054 75.8762 24.4101C75.7394 24.7148 75.5207 24.9531 75.2199 25.125C74.923 25.2968 74.5363 25.3828 74.0598 25.3828ZM74.6281 14.2851C74.6281 14.0078 74.7023 13.8125 74.8508 13.6992C75.0031 13.5859 75.1887 13.5293 75.4074 13.5293C75.6183 13.5293 75.8 13.5859 75.9523 13.6992C76.1086 13.8125 76.1867 14.0078 76.1867 14.2851C76.1867 14.5586 76.1086 14.7539 75.9523 14.8711C75.8 14.9843 75.6183 15.041 75.4074 15.041C75.1887 15.041 75.0031 14.9843 74.8508 14.8711C74.7023 14.7539 74.6281 14.5586 74.6281 14.2851ZM80.6457 15.8906C81.2238 15.8906 81.7199 16.0097 82.134 16.248C82.548 16.4863 82.8664 16.8242 83.0891 17.2617C83.3117 17.6992 83.423 18.2226 83.423 18.832V19.5703H79.093C79.1086 20.1992 79.2766 20.6836 79.5969 21.0234C79.9211 21.3633 80.3742 21.5332 80.9562 21.5332C81.3703 21.5332 81.7414 21.4941 82.0695 21.416C82.4016 21.334 82.7433 21.2148 83.0949 21.0586V22.1777C82.7707 22.33 82.4406 22.4414 82.1047 22.5117C81.7687 22.582 81.3664 22.6172 80.8976 22.6172C80.2609 22.6172 79.7004 22.4941 79.216 22.248C78.7355 21.998 78.3586 21.6269 78.0851 21.1347C77.8156 20.6425 77.6808 20.0312 77.6808 19.3008C77.6808 18.5742 77.8039 17.957 78.05 17.4492C78.2961 16.9414 78.6418 16.5547 79.0871 16.289C79.5324 16.0234 80.0519 15.8906 80.6457 15.8906ZM80.6457 16.9277C80.2121 16.9277 79.8605 17.0683 79.591 17.3496C79.3254 17.6308 79.1691 18.0429 79.1223 18.5859H82.0754C82.0715 18.2617 82.0168 17.9746 81.9113 17.7246C81.8098 17.4746 81.6535 17.2793 81.4426 17.1386C81.2355 16.998 80.9699 16.9277 80.6457 16.9277ZM89.3351 20.6484C89.3351 21.0742 89.2316 21.4336 89.0246 21.7265C88.8176 22.0195 88.5148 22.2422 88.1164 22.3945C87.7219 22.5429 87.2375 22.6172 86.6633 22.6172C86.2101 22.6172 85.8195 22.584 85.4914 22.5175C85.1672 22.455 84.8605 22.3574 84.5715 22.2246V21.0351C84.8801 21.1797 85.2258 21.3047 85.6086 21.4101C85.9953 21.5156 86.3605 21.5683 86.7043 21.5683C87.1574 21.5683 87.4836 21.498 87.6828 21.3574C87.882 21.2129 87.9816 21.0215 87.9816 20.7832C87.9816 20.6425 87.9406 20.5175 87.8586 20.4082C87.7805 20.2949 87.632 20.1797 87.4133 20.0625C87.1984 19.9414 86.882 19.7968 86.4641 19.6289C86.0539 19.4648 85.7082 19.3008 85.4269 19.1367C85.1457 18.9726 84.9328 18.7754 84.7883 18.5449C84.6437 18.3105 84.5715 18.0117 84.5715 17.6484C84.5715 17.0742 84.798 16.6386 85.2512 16.3418C85.7082 16.041 86.3117 15.8906 87.0617 15.8906C87.4601 15.8906 87.8351 15.9316 88.1867 16.0136C88.5422 16.0918 88.8898 16.207 89.2297 16.3593L88.7961 17.3965C88.5031 17.2675 88.2082 17.1621 87.9113 17.08C87.6183 16.9941 87.3195 16.9511 87.0148 16.9511C86.6594 16.9511 86.3879 17.0058 86.2004 17.1152C86.0168 17.2246 85.925 17.3808 85.925 17.584C85.925 17.7363 85.9699 17.8652 86.0598 17.9707C86.1496 18.0761 86.3039 18.1816 86.5226 18.2871C86.7453 18.3925 87.0539 18.5234 87.4484 18.6797C87.8351 18.8281 88.1691 18.9843 88.4504 19.1484C88.7355 19.3086 88.9543 19.5058 89.1066 19.7402C89.259 19.9746 89.3351 20.2773 89.3351 20.6484ZM92.2004 13.3828V15.6738C92.2004 15.9121 92.1926 16.1445 92.1769 16.3711C92.1652 16.5976 92.1516 16.7734 92.1359 16.8984H92.2121C92.3488 16.6718 92.5168 16.4863 92.716 16.3418C92.9152 16.1933 93.1379 16.082 93.384 16.0078C93.634 15.9336 93.8996 15.8965 94.1808 15.8965C94.6769 15.8965 95.0988 15.9804 95.4465 16.1484C95.7941 16.3125 96.0598 16.5683 96.2433 16.916C96.4308 17.2636 96.5246 17.7148 96.5246 18.2695V22.5H95.1476V18.5273C95.1476 18.0234 95.0441 17.6465 94.8371 17.3965C94.6301 17.1425 94.3098 17.0156 93.8762 17.0156C93.4582 17.0156 93.1262 17.1035 92.8801 17.2793C92.6379 17.4511 92.4641 17.707 92.3586 18.0468C92.2531 18.3828 92.2004 18.7929 92.2004 19.2773V22.5H90.8234V13.3828H92.2004ZM103.755 22.4941L102.935 19.4765C102.896 19.3281 102.849 19.1484 102.794 18.9375C102.739 18.7265 102.685 18.5097 102.63 18.2871C102.575 18.0605 102.525 17.8515 102.478 17.6601C102.435 17.4687 102.402 17.3203 102.378 17.2148H102.331C102.312 17.3203 102.28 17.4687 102.237 17.6601C102.195 17.8515 102.146 18.0605 102.091 18.2871C102.036 18.5136 101.982 18.7343 101.927 18.9492C101.876 19.164 101.829 19.3476 101.786 19.5L100.925 22.4941H99.4133L97.5969 16.0078H98.9914L99.8351 19.2304C99.8898 19.4492 99.9426 19.6855 99.9933 19.9394C100.048 20.1933 100.095 20.4355 100.134 20.666C100.173 20.8965 100.202 21.0859 100.222 21.2343H100.269C100.284 21.1289 100.306 20.9961 100.333 20.8359C100.361 20.6718 100.392 20.5019 100.427 20.3261C100.462 20.1465 100.497 19.9785 100.532 19.8222C100.568 19.6621 100.601 19.5332 100.632 19.4355L101.628 16.0078H103.134L104.089 19.4355C104.132 19.584 104.179 19.7715 104.23 19.998C104.28 20.2207 104.325 20.4453 104.364 20.6718C104.407 20.8945 104.435 21.08 104.446 21.2285H104.493C104.509 21.0957 104.536 20.916 104.575 20.6894C104.618 20.459 104.667 20.2148 104.722 19.957C104.777 19.6953 104.833 19.4531 104.892 19.2304L105.753 16.0078H107.124L105.296 22.4941H103.755ZM110.78 15.8906C111.601 15.8906 112.22 16.0722 112.638 16.4355C113.06 16.7988 113.271 17.3652 113.271 18.1347V22.5H112.292L112.029 21.58H111.982C111.798 21.8144 111.609 22.0078 111.413 22.1601C111.218 22.3125 110.991 22.4258 110.734 22.5C110.48 22.5781 110.169 22.6172 109.802 22.6172C109.415 22.6172 109.07 22.5468 108.765 22.4062C108.46 22.2617 108.22 22.0429 108.044 21.75C107.868 21.457 107.78 21.0859 107.78 20.6367C107.78 19.9687 108.029 19.4668 108.525 19.1308C109.025 18.7949 109.779 18.6093 110.786 18.5742L111.911 18.5332V18.1933C111.911 17.7441 111.806 17.4238 111.595 17.2324C111.388 17.041 111.095 16.9453 110.716 16.9453C110.392 16.9453 110.077 16.9922 109.773 17.0859C109.468 17.1797 109.171 17.2949 108.882 17.4316L108.437 16.459C108.753 16.291 109.112 16.1543 109.515 16.0488C109.921 15.9433 110.343 15.8906 110.78 15.8906ZM111.905 19.4004L111.068 19.4297C110.38 19.4531 109.898 19.5703 109.62 19.7812C109.343 19.9922 109.204 20.2812 109.204 20.6484C109.204 20.9687 109.3 21.2031 109.491 21.3515C109.683 21.4961 109.935 21.5683 110.247 21.5683C110.724 21.5683 111.118 21.4336 111.431 21.164C111.747 20.8906 111.905 20.4902 111.905 19.9629V19.4004ZM118.486 15.8906C118.595 15.8906 118.714 15.8965 118.843 15.9082C118.972 15.9199 119.083 15.9355 119.177 15.955L119.048 17.2441C118.966 17.2207 118.864 17.2031 118.743 17.1914C118.626 17.1797 118.521 17.1738 118.427 17.1738C118.181 17.1738 117.946 17.2148 117.724 17.2968C117.501 17.375 117.304 17.4961 117.132 17.6601C116.96 17.8203 116.825 18.0215 116.728 18.2636C116.63 18.5058 116.581 18.7871 116.581 19.1074V22.5H115.198V16.0136H116.277L116.464 17.1562H116.529C116.657 16.9258 116.818 16.7148 117.009 16.5234C117.2 16.332 117.419 16.1797 117.665 16.0664C117.915 15.9492 118.189 15.8906 118.486 15.8906ZM121.755 16.0136V22.5H120.378V16.0136H121.755ZM121.075 13.5293C121.286 13.5293 121.468 13.5859 121.62 13.6992C121.777 13.8125 121.855 14.0078 121.855 14.2851C121.855 14.5586 121.777 14.7539 121.62 14.8711C121.468 14.9843 121.286 15.041 121.075 15.041C120.857 15.041 120.671 14.9843 120.519 14.8711C120.37 14.7539 120.296 14.5586 120.296 14.2851C120.296 14.0078 120.37 13.8125 120.519 13.6992C120.671 13.5859 120.857 13.5293 121.075 13.5293ZM134.136 22.5H132.407L128.212 15.6621H128.159C128.175 15.8925 128.189 16.1367 128.2 16.3945C128.216 16.6523 128.228 16.9179 128.236 17.1914C128.247 17.4648 128.257 17.7422 128.265 18.0234V22.5H126.987V13.9336H128.704L132.894 20.7246H132.935C132.927 20.5254 132.917 20.2968 132.905 20.039C132.894 19.7812 132.882 19.5156 132.87 19.2422C132.862 18.9648 132.857 18.6972 132.853 18.4394V13.9336H134.136V22.5ZM138.788 15.8906C139.609 15.8906 140.228 16.0722 140.646 16.4355C141.068 16.7988 141.279 17.3652 141.279 18.1347V22.5H140.3L140.036 21.58H139.989C139.806 21.8144 139.616 22.0078 139.421 22.1601C139.226 22.3125 138.999 22.4258 138.741 22.5C138.487 22.5781 138.177 22.6172 137.81 22.6172C137.423 22.6172 137.077 22.5468 136.773 22.4062C136.468 22.2617 136.228 22.0429 136.052 21.75C135.876 21.457 135.788 21.0859 135.788 20.6367C135.788 19.9687 136.036 19.4668 136.532 19.1308C137.032 18.7949 137.786 18.6093 138.794 18.5742L139.919 18.5332V18.1933C139.919 17.7441 139.814 17.4238 139.603 17.2324C139.396 17.041 139.103 16.9453 138.724 16.9453C138.4 16.9453 138.085 16.9922 137.78 17.0859C137.476 17.1797 137.179 17.2949 136.89 17.4316L136.445 16.459C136.761 16.291 137.12 16.1543 137.523 16.0488C137.929 15.9433 138.351 15.8906 138.788 15.8906ZM139.913 19.4004L139.075 19.4297C138.388 19.4531 137.905 19.5703 137.628 19.7812C137.351 19.9922 137.212 20.2812 137.212 20.6484C137.212 20.9687 137.308 21.2031 137.499 21.3515C137.691 21.4961 137.943 21.5683 138.255 21.5683C138.732 21.5683 139.126 21.4336 139.439 21.164C139.755 20.8906 139.913 20.4902 139.913 19.9629V19.4004ZM145.058 25.3828C144.179 25.3828 143.505 25.2246 143.036 24.9082C142.568 24.5918 142.333 24.1484 142.333 23.5781C142.333 23.1797 142.458 22.8418 142.708 22.5644C142.958 22.291 143.316 22.1015 143.78 21.9961C143.605 21.9179 143.452 21.7968 143.323 21.6328C143.198 21.4648 143.136 21.2793 143.136 21.0761C143.136 20.834 143.204 20.6269 143.341 20.455C143.478 20.2832 143.683 20.1172 143.956 19.957C143.616 19.8125 143.343 19.5781 143.136 19.2539C142.933 18.9258 142.831 18.541 142.831 18.0996C142.831 17.6308 142.931 17.2324 143.13 16.9043C143.329 16.5722 143.62 16.3203 144.003 16.1484C144.386 15.9726 144.849 15.8847 145.392 15.8847C145.509 15.8847 145.636 15.8925 145.773 15.9082C145.913 15.9199 146.042 15.9355 146.159 15.955C146.28 15.9707 146.372 15.9883 146.435 16.0078H148.679V16.7754L147.577 16.9804C147.683 17.1289 147.767 17.2988 147.829 17.4902C147.892 17.6777 147.923 17.8828 147.923 18.1054C147.923 18.7773 147.691 19.3066 147.226 19.6933C146.765 20.0761 146.128 20.2675 145.316 20.2675C145.12 20.2597 144.931 20.2441 144.747 20.2207C144.607 20.3066 144.499 20.4023 144.425 20.5078C144.351 20.6093 144.314 20.7246 144.314 20.8535C144.314 20.959 144.351 21.0449 144.425 21.1113C144.499 21.1738 144.609 21.2207 144.753 21.2519C144.902 21.2832 145.081 21.2988 145.292 21.2988H146.411C147.122 21.2988 147.665 21.4492 148.04 21.75C148.415 22.0508 148.603 22.4922 148.603 23.0742C148.603 23.8125 148.298 24.3808 147.689 24.7793C147.079 25.1816 146.202 25.3828 145.058 25.3828ZM145.111 24.416C145.591 24.416 145.995 24.3691 146.323 24.2754C146.652 24.1816 146.9 24.0468 147.068 23.8711C147.236 23.6992 147.32 23.4941 147.32 23.2558C147.32 23.0449 147.267 22.8828 147.161 22.7695C147.056 22.6562 146.898 22.5781 146.687 22.5351C146.476 22.4922 146.214 22.4707 145.902 22.4707H144.882C144.628 22.4707 144.404 22.5097 144.208 22.5879C144.013 22.6699 143.861 22.7871 143.751 22.9394C143.646 23.0918 143.593 23.2754 143.593 23.4902C143.593 23.7871 143.724 24.0156 143.986 24.1758C144.251 24.3359 144.626 24.416 145.111 24.416ZM145.38 19.3652C145.782 19.3652 146.081 19.2558 146.277 19.0371C146.472 18.8144 146.57 18.5019 146.57 18.0996C146.57 17.6621 146.468 17.334 146.265 17.1152C146.066 16.8965 145.769 16.7871 145.374 16.7871C144.987 16.7871 144.693 16.8984 144.489 17.1211C144.29 17.3437 144.191 17.6738 144.191 18.1113C144.191 18.5058 144.29 18.8144 144.489 19.0371C144.693 19.2558 144.989 19.3652 145.38 19.3652ZM152.405 15.8906C153.226 15.8906 153.845 16.0722 154.263 16.4355C154.685 16.7988 154.896 17.3652 154.896 18.1347V22.5H153.917L153.654 21.58H153.607C153.423 21.8144 153.234 22.0078 153.038 22.1601C152.843 22.3125 152.616 22.4258 152.359 22.5C152.105 22.5781 151.794 22.6172 151.427 22.6172C151.04 22.6172 150.695 22.5468 150.39 22.4062C150.085 22.2617 149.845 22.0429 149.669 21.75C149.493 21.457 149.405 21.0859 149.405 20.6367C149.405 19.9687 149.654 19.4668 150.15 19.1308C150.65 18.7949 151.404 18.6093 152.411 18.5742L153.536 18.5332V18.1933C153.536 17.7441 153.431 17.4238 153.22 17.2324C153.013 17.041 152.72 16.9453 152.341 16.9453C152.017 16.9453 151.702 16.9922 151.398 17.0859C151.093 17.1797 150.796 17.2949 150.507 17.4316L150.062 16.459C150.378 16.291 150.737 16.1543 151.14 16.0488C151.546 15.9433 151.968 15.8906 152.405 15.8906ZM153.53 19.4004L152.693 19.4297C152.005 19.4531 151.523 19.5703 151.245 19.7812C150.968 19.9922 150.829 20.2812 150.829 20.6484C150.829 20.9687 150.925 21.2031 151.116 21.3515C151.308 21.4961 151.56 21.5683 151.872 21.5683C152.349 21.5683 152.743 21.4336 153.056 21.164C153.372 20.8906 153.53 20.4902 153.53 19.9629V19.4004ZM160.111 15.8906C160.22 15.8906 160.339 15.8965 160.468 15.9082C160.597 15.9199 160.708 15.9355 160.802 15.955L160.673 17.2441C160.591 17.2207 160.489 17.2031 160.368 17.1914C160.251 17.1797 160.146 17.1738 160.052 17.1738C159.806 17.1738 159.571 17.2148 159.349 17.2968C159.126 17.375 158.929 17.4961 158.757 17.6601C158.585 17.8203 158.45 18.0215 158.353 18.2636C158.255 18.5058 158.206 18.7871 158.206 19.1074V22.5H156.823V16.0136H157.902L158.089 17.1562H158.154C158.282 16.9258 158.443 16.7148 158.634 16.5234C158.825 16.332 159.044 16.1797 159.29 16.0664C159.54 15.9492 159.814 15.8906 160.111 15.8906Z" fill="#1E293D" fill-opacity="0.69"/>
<g clip-path="url(#clip0_1_20)">
<path d="M21.9981 8.82571C19.2033 8.82571 16.8724 11.077 16.8724 13.9514C16.8724 15.045 17.201 16.0201 17.8316 16.9339L21.6058 22.8232C21.7889 23.1095 22.2076 23.1089 22.3904 22.8232L26.181 16.9138C26.798 16.0415 27.1238 15.0172 27.1238 13.9514C27.1238 11.1251 24.8244 8.82571 21.9981 8.82571ZM21.9981 16.2813C20.7135 16.2813 19.6682 15.2361 19.6682 13.9514C19.6682 12.6668 20.7135 11.6216 21.9981 11.6216C23.2827 11.6216 24.328 12.6668 24.328 13.9514C24.328 15.2361 23.2827 16.2813 21.9981 16.2813Z" fill="url(#paint0_linear_1_20)"/>
<path d="M25.6409 19.5337L23.2946 23.2021C22.6872 24.149 21.3056 24.1459 20.7012 23.203L18.351 19.5347C16.2832 20.0127 15.0085 20.8886 15.0085 21.9352C15.0085 23.7513 18.6098 24.731 21.9981 24.731C25.3864 24.731 28.9878 23.7513 28.9878 21.9352C28.9878 20.8878 27.7113 20.0115 25.6409 19.5337Z" fill="url(#paint1_linear_1_20)"/>
</g>
<path d="M37.6291 39.4749H39.6457C40.593 39.4749 41.2782 39.6165 41.7014 39.8997C42.1245 40.1829 42.3361 40.6305 42.3361 41.2425C42.3361 41.6657 42.2173 42.0156 41.9797 42.2923C41.7453 42.5657 41.4019 42.7431 40.9494 42.8245V42.8734C42.0334 43.0589 42.5754 43.6286 42.5754 44.5823C42.5754 45.2204 42.3589 45.7184 41.926 46.0765C41.4963 46.4345 40.8941 46.6136 40.1193 46.6136H37.6291V39.4749ZM38.4592 42.5316H39.8264C40.4123 42.5316 40.8338 42.4404 41.091 42.2581C41.3482 42.0726 41.4767 41.7617 41.4767 41.3255C41.4767 40.9251 41.3335 40.637 41.0471 40.4612C40.7606 40.2822 40.3049 40.1927 39.6799 40.1927H38.4592V42.5316ZM38.4592 43.2347V45.9056H39.9484C40.5246 45.9056 40.9575 45.7949 41.2473 45.5735C41.5402 45.3489 41.6867 44.999 41.6867 44.5237C41.6867 44.081 41.537 43.7555 41.2375 43.5472C40.9413 43.3388 40.4888 43.2347 39.8801 43.2347H38.4592ZM46.4328 41.1644C46.6704 41.1644 46.8836 41.1839 47.0724 41.223L46.9601 41.9749C46.7388 41.9261 46.5435 41.9017 46.3742 41.9017C45.9413 41.9017 45.5702 42.0775 45.2609 42.429C44.9549 42.7806 44.8019 43.2184 44.8019 43.7425V46.6136H43.9914V41.262H44.6603L44.7531 42.2532H44.7922C44.9907 41.9049 45.23 41.6364 45.5099 41.4476C45.7899 41.2588 46.0975 41.1644 46.4328 41.1644ZM51.3644 46.6136L51.2033 45.8519H51.1642C50.8973 46.1872 50.6304 46.415 50.3635 46.5355C50.0998 46.6526 49.7694 46.7112 49.3723 46.7112C48.8417 46.7112 48.425 46.5745 48.1223 46.3011C47.8228 46.0276 47.673 45.6387 47.673 45.1341C47.673 44.0534 48.5373 43.487 50.2658 43.4349L51.174 43.4056V43.0735C51.174 42.6536 51.0829 42.3444 50.9006 42.1458C50.7215 41.944 50.4335 41.8431 50.0363 41.8431C49.5904 41.8431 49.0858 41.9798 48.5226 42.2532L48.2736 41.6331C48.5373 41.4899 48.8254 41.3776 49.1379 41.2962C49.4536 41.2148 49.7694 41.1741 50.0851 41.1741C50.7232 41.1741 51.1952 41.3157 51.5012 41.5989C51.8104 41.8821 51.965 42.3362 51.965 42.9612V46.6136H51.3644ZM49.5334 46.0423C50.0379 46.0423 50.4335 45.904 50.7199 45.6273C51.0096 45.3506 51.1545 44.9632 51.1545 44.4651V43.9818L50.3439 44.0159C49.6994 44.0387 49.2339 44.1396 48.9474 44.3187C48.6642 44.4944 48.5226 44.7695 48.5226 45.1439C48.5226 45.4368 48.6105 45.6598 48.7863 45.8128C48.9654 45.9658 49.2144 46.0423 49.5334 46.0423ZM57.3019 46.6136V43.1517C57.3019 42.7155 57.2027 42.39 57.0041 42.1751C56.8055 41.9603 56.4946 41.8528 56.0715 41.8528C55.5116 41.8528 55.1014 42.0042 54.841 42.3069C54.5806 42.6097 54.4504 43.1094 54.4504 43.806V46.6136H53.6398V41.262H54.299L54.4308 41.9944H54.4699C54.6359 41.7308 54.8687 41.5273 55.1682 41.3841C55.4676 41.2376 55.8013 41.1644 56.1691 41.1644C56.8137 41.1644 57.2987 41.3206 57.6242 41.6331C57.9497 41.9424 58.1125 42.4388 58.1125 43.1224V46.6136H57.3019ZM61.9211 46.7112C61.1463 46.7112 60.5458 46.4736 60.1193 45.9984C59.6961 45.5198 59.4846 44.8444 59.4846 43.972C59.4846 43.0768 59.6994 42.3851 60.1291 41.8968C60.562 41.4085 61.1773 41.1644 61.9748 41.1644C62.232 41.1644 62.4891 41.192 62.7463 41.2474C63.0034 41.3027 63.2053 41.3678 63.3517 41.4427L63.1027 42.1312C62.9237 42.0595 62.7284 42.001 62.5168 41.9554C62.3052 41.9066 62.118 41.8821 61.9553 41.8821C60.868 41.8821 60.3244 42.5755 60.3244 43.9622C60.3244 44.6198 60.4562 45.1243 60.7199 45.4759C60.9868 45.8275 61.3807 46.0032 61.9016 46.0032C62.3475 46.0032 62.8049 45.9072 63.2736 45.7151V46.4329C62.9155 46.6185 62.4647 46.7112 61.9211 46.7112ZM68.2101 46.6136V43.1517C68.2101 42.7155 68.1109 42.39 67.9123 42.1751C67.7137 41.9603 67.4029 41.8528 66.9797 41.8528C66.4165 41.8528 66.0047 42.0058 65.7443 42.3118C65.4872 42.6178 65.3586 43.1191 65.3586 43.8157V46.6136H64.548V39.0159H65.3586V41.3157C65.3586 41.5924 65.3456 41.8219 65.3195 42.0042H65.3683C65.5279 41.747 65.7541 41.5452 66.0471 41.3987C66.3433 41.249 66.6802 41.1741 67.0578 41.1741C67.7121 41.1741 68.202 41.3304 68.5275 41.6429C68.8563 41.9521 69.0207 42.4453 69.0207 43.1224V46.6136H68.2101ZM77.6096 46.6136H72.9172V45.9153L74.7971 44.0257C75.37 43.4463 75.7476 43.0329 75.9299 42.7855C76.1122 42.5381 76.2489 42.2972 76.34 42.0628C76.4312 41.8284 76.4767 41.5762 76.4767 41.306C76.4767 40.9251 76.3612 40.624 76.1301 40.4026C75.8989 40.178 75.5783 40.0657 75.1682 40.0657C74.8719 40.0657 74.5904 40.1146 74.3234 40.2122C74.0598 40.3099 73.7652 40.4873 73.4396 40.7444L73.0099 40.1927C73.6675 39.6458 74.3836 39.3724 75.1584 39.3724C75.829 39.3724 76.3547 39.5449 76.7355 39.89C77.1164 40.2318 77.3068 40.6924 77.3068 41.2718C77.3068 41.7243 77.1799 42.1719 76.926 42.6146C76.6721 43.0573 76.1968 43.6172 75.5002 44.2943L73.9377 45.8226V45.8616H77.6096V46.6136Z" fill="black" fill-opacity="0.35"/>
<path d="M37.6291 67.9371H39.6457C40.593 67.9371 41.2782 68.0787 41.7014 68.3619C42.1245 68.6451 42.3361 69.0927 42.3361 69.7046C42.3361 70.1278 42.2173 70.4777 41.9797 70.7544C41.7453 71.0279 41.4019 71.2053 40.9494 71.2867V71.3355C42.0334 71.521 42.5754 72.0907 42.5754 73.0445C42.5754 73.6825 42.3589 74.1805 41.926 74.5386C41.4963 74.8967 40.8941 75.0757 40.1193 75.0757H37.6291V67.9371ZM38.4592 70.9937H39.8264C40.4123 70.9937 40.8338 70.9026 41.091 70.7203C41.3482 70.5347 41.4767 70.2238 41.4767 69.7876C41.4767 69.3873 41.3335 69.0992 41.0471 68.9234C40.7606 68.7443 40.3049 68.6548 39.6799 68.6548H38.4592V70.9937ZM38.4592 71.6968V74.3677H39.9484C40.5246 74.3677 40.9575 74.257 41.2473 74.0357C41.5402 73.8111 41.6867 73.4611 41.6867 72.9859C41.6867 72.5432 41.537 72.2177 41.2375 72.0093C40.9413 71.801 40.4888 71.6968 39.8801 71.6968H38.4592ZM46.4328 69.6265C46.6704 69.6265 46.8836 69.646 47.0724 69.6851L46.9601 70.4371C46.7388 70.3882 46.5435 70.3638 46.3742 70.3638C45.9413 70.3638 45.5702 70.5396 45.2609 70.8912C44.9549 71.2427 44.8019 71.6805 44.8019 72.2046V75.0757H43.9914V69.7242H44.6603L44.7531 70.7154H44.7922C44.9907 70.3671 45.23 70.0985 45.5099 69.9097C45.7899 69.7209 46.0975 69.6265 46.4328 69.6265ZM51.3644 75.0757L51.2033 74.314H51.1642C50.8973 74.6493 50.6304 74.8772 50.3635 74.9976C50.0998 75.1148 49.7694 75.1734 49.3723 75.1734C48.8417 75.1734 48.425 75.0367 48.1223 74.7632C47.8228 74.4898 47.673 74.1008 47.673 73.5962C47.673 72.5155 48.5373 71.9491 50.2658 71.897L51.174 71.8677V71.5357C51.174 71.1158 51.0829 70.8065 50.9006 70.608C50.7215 70.4061 50.4335 70.3052 50.0363 70.3052C49.5904 70.3052 49.0858 70.4419 48.5226 70.7154L48.2736 70.0953C48.5373 69.952 48.8254 69.8397 49.1379 69.7583C49.4536 69.677 49.7694 69.6363 50.0851 69.6363C50.7232 69.6363 51.1952 69.7779 51.5012 70.0611C51.8104 70.3443 51.965 70.7984 51.965 71.4234V75.0757H51.3644ZM49.5334 74.5044C50.0379 74.5044 50.4335 74.3661 50.7199 74.0894C51.0096 73.8127 51.1545 73.4253 51.1545 72.9273V72.4439L50.3439 72.4781C49.6994 72.5009 49.2339 72.6018 48.9474 72.7808C48.6642 72.9566 48.5226 73.2317 48.5226 73.606C48.5226 73.899 48.6105 74.122 48.7863 74.2749C48.9654 74.4279 49.2144 74.5044 49.5334 74.5044ZM57.3019 75.0757V71.6138C57.3019 71.1776 57.2027 70.8521 57.0041 70.6373C56.8055 70.4224 56.4946 70.315 56.0715 70.315C55.5116 70.315 55.1014 70.4664 54.841 70.7691C54.5806 71.0718 54.4504 71.5715 54.4504 72.2681V75.0757H53.6398V69.7242H54.299L54.4308 70.4566H54.4699C54.6359 70.1929 54.8687 69.9895 55.1682 69.8462C55.4676 69.6998 55.8013 69.6265 56.1691 69.6265C56.8137 69.6265 57.2987 69.7828 57.6242 70.0953C57.9497 70.4045 58.1125 70.9009 58.1125 71.5845V75.0757H57.3019ZM61.9211 75.1734C61.1463 75.1734 60.5458 74.9358 60.1193 74.4605C59.6961 73.982 59.4846 73.3065 59.4846 72.4341C59.4846 71.5389 59.6994 70.8472 60.1291 70.3589C60.562 69.8707 61.1773 69.6265 61.9748 69.6265C62.232 69.6265 62.4891 69.6542 62.7463 69.7095C63.0034 69.7649 63.2053 69.83 63.3517 69.9048L63.1027 70.5933C62.9237 70.5217 62.7284 70.4631 62.5168 70.4175C62.3052 70.3687 62.118 70.3443 61.9553 70.3443C60.868 70.3443 60.3244 71.0376 60.3244 72.4244C60.3244 73.0819 60.4562 73.5865 60.7199 73.938C60.9868 74.2896 61.3807 74.4654 61.9016 74.4654C62.3475 74.4654 62.8049 74.3693 63.2736 74.1773V74.8951C62.9155 75.0806 62.4647 75.1734 61.9211 75.1734ZM68.2101 75.0757V71.6138C68.2101 71.1776 68.1109 70.8521 67.9123 70.6373C67.7137 70.4224 67.4029 70.315 66.9797 70.315C66.4165 70.315 66.0047 70.468 65.7443 70.774C65.4872 71.08 65.3586 71.5813 65.3586 72.2779V75.0757H64.548V67.4781H65.3586V69.7779C65.3586 70.0546 65.3456 70.2841 65.3195 70.4664H65.3683C65.5279 70.2092 65.7541 70.0074 66.0471 69.8609C66.3433 69.7111 66.6802 69.6363 67.0578 69.6363C67.7121 69.6363 68.202 69.7925 68.5275 70.105C68.8563 70.4143 69.0207 70.9074 69.0207 71.5845V75.0757H68.2101ZM77.341 69.6167C77.341 70.0725 77.2124 70.4452 76.9553 70.7349C76.7014 71.0246 76.34 71.2183 75.8713 71.316V71.355C76.4442 71.4266 76.869 71.6089 77.1457 71.9019C77.4224 72.1949 77.5607 72.579 77.5607 73.0542C77.5607 73.7346 77.3247 74.2587 76.8527 74.6265C76.3807 74.9911 75.7101 75.1734 74.841 75.1734C74.4634 75.1734 74.1167 75.1441 73.801 75.0855C73.4885 75.0302 73.1841 74.9309 72.8879 74.7876V74.0162C73.1971 74.1692 73.5259 74.2863 73.8742 74.3677C74.2258 74.4458 74.5578 74.4849 74.8703 74.4849C76.104 74.4849 76.7209 74.0015 76.7209 73.0347C76.7209 72.1688 76.0405 71.7359 74.6799 71.7359H73.9767V71.0376H74.6896C75.2463 71.0376 75.6874 70.9156 76.0129 70.6714C76.3384 70.424 76.5012 70.0822 76.5012 69.646C76.5012 69.2977 76.3807 69.0243 76.1398 68.8257C75.9022 68.6272 75.5783 68.5279 75.1682 68.5279C74.8557 68.5279 74.5611 68.5702 74.2844 68.6548C74.0077 68.7395 73.6919 68.8957 73.3371 69.1236L72.9269 68.5767C73.2199 68.3456 73.5568 68.1649 73.9377 68.0347C74.3218 67.9013 74.7254 67.8345 75.1486 67.8345C75.842 67.8345 76.3807 67.994 76.7648 68.313C77.1489 68.6288 77.341 69.0634 77.341 69.6167Z" fill="black" fill-opacity="0.35"/>
<line x1="14.8245" y1="54.979" x2="208.763" y2="54.979" stroke="black" stroke-opacity="0.08"/>
<rect x="197.037" y="35.6341" width="12.6286" height="12.6286" rx="6.31429" fill="url(#paint2_linear_1_20)"/>
<rect x="197.537" y="64.9994" width="10.7265" height="10.7265" rx="5.36327" stroke="#FF5757"/>
<g clip-path="url(#clip1_1_20)">
<g filter="url(#filter1_d_1_20)">
<path d="M208.796 17.6103C208.66 17.4742 208.499 17.4062 208.312 17.4062H198.688C198.501 17.4062 198.34 17.4742 198.204 17.6103C198.068 17.7465 198 17.9076 198 18.0938C198 18.28 198.068 18.441 198.204 18.5772L203.017 23.3896C203.153 23.5257 203.314 23.5938 203.5 23.5938C203.686 23.5938 203.847 23.5257 203.983 23.3896L208.796 18.5771C208.932 18.441 209 18.28 209 18.0938C209 17.9076 208.932 17.7465 208.796 17.6103Z" fill="#FF5757"/>
</g>
</g>
<defs>
<filter id="filter0_d_1_20" x="0" y="0.454529" width="229" height="95.0606" filterUnits="userSpaceOnUse" color-interpolation-filters="sRGB">
<feFlood flood-opacity="0" result="BackgroundImageFix"/>
<feColorMatrix in="SourceAlpha" type="matrix" values="0 0 0 0 0 0 0 0 0 0 0 0 0 0 0 0 0 0 127 0" result="hardAlpha"/>
<feOffset dy="4"/>
<feGaussianBlur stdDeviation="2"/>
<feComposite in2="hardAlpha" operator="out"/>
<feColorMatrix type="matrix" values="0 0 0 0 0 0 0 0 0 0 0 0 0 0 0 0 0 0 0.15 0"/>
<feBlend mode="normal" in2="BackgroundImageFix" result="effect1_dropShadow_1_20"/>
<feBlend mode="normal" in="SourceGraphic" in2="effect1_dropShadow_1_20" result="shape"/>
</filter>
<filter id="filter1_d_1_20" x="196" y="17.4062" width="15" height="10.1876" filterUnits="userSpaceOnUse" color-interpolation-filters="sRGB">
<feFlood flood-opacity="0" result="BackgroundImageFix"/>
<feColorMatrix in="SourceAlpha" type="matrix" values="0 0 0 0 0 0 0 0 0 0 0 0 0 0 0 0 0 0 127 0" result="hardAlpha"/>
<feOffset dy="2"/>
<feGaussianBlur stdDeviation="1"/>
<feComposite in2="hardAlpha" operator="out"/>
<feColorMatrix type="matrix" values="0 0 0 0 0 0 0 0 0 0 0 0 0 0 0 0 0 0 0.15 0"/>
<feBlend mode="normal" in2="BackgroundImageFix" result="effect1_dropShadow_1_20"/>
<feBlend mode="normal" in="SourceGraphic" in2="effect1_dropShadow_1_20" result="shape"/>
</filter>
<linearGradient id="paint0_linear_1_20" x1="21.9981" y1="8.82571" x2="21.9981" y2="23.0377" gradientUnits="userSpaceOnUse">
<stop stop-color="#FC8F8F"/>
<stop offset="1" stop-color="#FF5757"/>
</linearGradient>
<linearGradient id="paint1_linear_1_20" x1="21.9981" y1="19.5337" x2="21.9981" y2="24.731" gradientUnits="userSpaceOnUse">
<stop stop-color="#FC8F8F"/>
<stop offset="1" stop-color="#FF5757"/>
</linearGradient>
<linearGradient id="paint2_linear_1_20" x1="203.351" y1="35.6341" x2="203.351" y2="48.2627" gradientUnits="userSpaceOnUse">
<stop stop-color="#FC8F8F"/>
<stop offset="1" stop-color="#FF5757"/>
</linearGradient>
<clipPath id="clip0_1_20">
<rect width="15.9053" height="15.9053" fill="white" transform="translate(14.0455 8.82571)"/>
</clipPath>
<clipPath id="clip1_1_20">
<rect width="11" height="11" fill="white" transform="translate(198 15)"/>
</clipPath>
</defs>
</svg>
